#N canvas 7 467 505 251 10;
#X obj 136 218 dac~;
#N canvas 585 121 315 186 sample_1 1;
#X obj 14 25 inlet;
#X text 10 0 trigger;
#X msg 14 56 1;
#X obj 22 86 readsf~ 2 1e+06;
#X obj 52 133 outlet~;
#X msg 60 56 open bassdrum.wav;
#X connect 0 0 5 0;
#X connect 0 0 2 0;
#X connect 2 0 3 0;
#X connect 3 0 4 0;
#X connect 3 1 4 0;
#X connect 5 0 3 0;
#X restore 26 127 pd sample_1;
#N canvas 577 360 382 212 sample_2 1;
#X obj 15 34 inlet;
#X text 11 9 trigger;
#X msg 15 65 1;
#X obj 23 95 readsf~ 2 1e+06;
#X obj 53 142 outlet~;
#X msg 108 63 open snaredrum.wav;
#X connect 0 0 5 0;
#X connect 0 0 2 0;
#X connect 2 0 3 0;
#X connect 3 0 4 0;
#X connect 3 1 4 0;
#X connect 5 0 3 0;
#X restore 145 130 pd sample_2;
#X obj 23 70 qlist;
#X obj 52 15 bng 15 250 50 0 empty empty empty 17 7 0 10 -262144 -1
-1;
#X obj 23 14 bng 15 250 50 0 empty empty empty 17 7 0 10 -262144 -1
-1;
#X obj 26 103 r p1;
#X obj 145 100 r p2;
#X msg 52 40 read sequence.txt;
#X obj 258 103 r p3;
#N canvas 495 504 320 179 sample_3 1;
#X obj 14 25 inlet;
#X text 10 0 trigger;
#X msg 14 56 1;
#X obj 22 86 readsf~ 2 1e+06;
#X obj 52 133 outlet~;
#X msg 60 56 open hihat.wav;
#X connect 0 0 5 0;
#X connect 0 0 2 0;
#X connect 2 0 3 0;
#X connect 3 0 4 0;
#X connect 3 1 4 0;
#X connect 5 0 3 0;
#X restore 258 131 pd sample_3;
#X obj 232 97 vsl 15 50 0 1 0 0 empty empty empty 0 -9 0 10 -262144
-1 -1 2700 1;
#X obj 346 98 vsl 15 50 0 1 0 0 empty empty empty 0 -9 0 10 -262144
-1 -1 3200 1;
#X obj 119 98 vsl 15 50 0 1 0 0 empty empty empty 0 -9 0 10 -262144
-1 -1 2800 1;
#X obj 259 166 *~;
#X obj 25 162 *~;
#X obj 146 161 *~;
#X obj 459 92 vsl 15 50 0 1 0 0 empty empty empty 0 -9 0 10 -262144
-1 -1 2800 1;
#X obj 372 160 *~;
#X obj 371 96 r p4;
#N canvas 630 536 320 179 sample_4 1;
#X obj 14 25 inlet;
#X text 10 0 trigger;
#X obj 120 24 inlet;
#X text 103 -5 choosen file;
#X msg 14 56 1;
#X obj 22 86 readsf~ 2 1e+06;
#X obj 52 133 outlet~;
#X msg 60 56 open cymbal.wav;
#X connect 0 0 7 0;
#X connect 0 0 4 0;
#X connect 4 0 5 0;
#X connect 5 0 6 0;
#X connect 5 1 6 0;
#X connect 7 0 5 0;
#X restore 371 125 pd sample_4;
#X connect 1 0 15 0;
#X connect 2 0 16 0;
#X connect 4 0 8 0;
#X connect 5 0 3 0;
#X connect 6 0 1 0;
#X connect 7 0 2 0;
#X connect 8 0 3 0;
#X connect 9 0 10 0;
#X connect 10 0 14 0;
#X connect 11 0 16 1;
#X connect 12 0 14 1;
#X connect 13 0 15 1;
#X connect 14 0 0 0;
#X connect 14 0 0 1;
#X connect 15 0 0 0;
#X connect 15 0 0 1;
#X connect 16 0 0 0;
#X connect 16 0 0 1;
#X connect 17 0 18 1;
#X connect 18 0 0 0;
#X connect 18 0 0 1;
#X connect 19 0 20 0;
#X connect 20 0 18 0;
